<svg width="25" height="24" viewBox="0 0 25 24" fill="none" xmlns="http://www.w3.org/2000/svg">
<g opacity="0.8">
<path fill-rule="evenodd" clip-rule="evenodd" d="M3.69507 13.125C3.69507 12.6114 4.11144 12.195 4.62507 12.195H9.87507C10.3887 12.195 10.8051 12.6114 10.8051 13.125C10.8051 13.6386 10.3887 14.055 9.87507 14.055H5.55507V19.875C5.55507 20.3886 5.13869 20.805 4.62507 20.805C4.11144 20.805 3.69507 20.3886 3.69507 19.875V13.125Z" fill="#FFFFFF"/>
<path fill-rule="evenodd" clip-rule="evenodd" d="M2.19507 19.875C2.19507 19.3614 2.61144 18.945 3.12507 18.945H21.8751C22.3887 18.945 22.8051 19.3614 22.8051 19.875C22.8051 20.3886 22.3887 20.805 21.8751 20.805H3.12507C2.61144 20.805 2.19507 20.3886 2.19507 19.875Z" fill="#FFFFFF"/>
<path fill-rule="evenodd" clip-rule="evenodd" d="M8.94507 8.62501C8.94507 8.11138 9.36144 7.69501 9.87507 7.69501H15.1251C15.6387 7.69501 16.0551 8.11138 16.0551 8.62501C16.0551 9.13863 15.6387 9.55501 15.1251 9.55501H10.8051V19.875C10.8051 20.3886 10.3887 20.805 9.87507 20.805C9.36144 20.805 8.94507 20.3886 8.94507 19.875V8.62501Z" fill="#FFFFFF"/>
<path fill-rule="evenodd" clip-rule="evenodd" d="M14.1951 4.12501C14.1951 3.61138 14.6114 3.19501 15.1251 3.19501H20.3751C20.8887 3.19501 21.3051 3.61138 21.3051 4.12501V19.875C21.3051 20.3886 20.8887 20.805 20.3751 20.805H15.1251C14.6114 20.805 14.1951 20.3886 14.1951 19.875V4.12501ZM16.0551 5.05501V18.945H19.4451V5.05501H16.0551Z" fill="#FFFFFF"/>
</g>
</svg>
