<svg width="25" height="24" viewBox="0 0 25 24" fill="none" xmlns="http://www.w3.org/2000/svg">
<g opacity="0.8">
<path d="M6.35007 12.7067C7.26134 12.7067 8.00007 11.9679 8.00007 11.0567C8.00007 10.1454 7.26134 9.40668 6.35007 9.40668C5.4388 9.40668 4.70007 10.1454 4.70007 11.0567C4.70007 11.9679 5.4388 12.7067 6.35007 12.7067Z" fill="#FFFFFF"/>
<path d="M11.3 6.55668C11.3 7.46795 10.5613 8.20668 9.65 8.20668C8.73873 8.20668 8 7.46795 8 6.55668C8 5.64541 8.73873 4.90668 9.65 4.90668C10.5613 4.90668 11.3 5.64541 11.3 6.55668Z" fill="#FFFFFF"/>
<path d="M15.3501 8.20668C16.2613 8.20668 17.0001 7.46795 17.0001 6.55668C17.0001 5.64541 16.2613 4.90668 15.3501 4.90668C14.4388 4.90668 13.7001 5.64541 13.7001 6.55668C13.7001 7.46795 14.4388 8.20668 15.3501 8.20668Z" fill="#FFFFFF"/>
<path d="M20.3 11.0567C20.3 11.9679 19.5613 12.7067 18.65 12.7067C17.7387 12.7067 17 11.9679 17 11.0567C17 10.1454 17.7387 9.40668 18.65 9.40668C19.5613 9.40668 20.3 10.1454 20.3 11.0567Z" fill="#FFFFFF"/>
<path fill-rule="evenodd" clip-rule="evenodd" d="M12.5 23.25C6.35 23.25 1.25 18.15 1.25 12C1.25 5.85 6.35 0.75 12.5 0.75C18.65 0.75 23.75 5.25 23.75 10.8C23.75 14.4 20.75 17.4 17.15 17.4H15.05C14.6 17.4 14.15 17.85 14.15 18.3C14.15 18.6 14.3 18.75 14.45 18.9C14.9 19.35 15.05 19.95 15.05 20.55C15.05 22.05 13.85 23.25 12.5 23.25ZM12.5 2.4C7.25 2.4 2.9 6.75 2.9 12C2.9 17.25 7.25 21.6 12.5 21.6C12.95 21.6 13.4 21.15 13.4 20.7C13.4 20.4 13.25 20.25 13.1 20.1C12.65 19.65 12.5 19.05 12.5 18.45C12.5 17.1 13.7 15.9 15.05 15.9H17.15C19.85 15.9 22.1 13.65 22.1 10.95C22.1 6.15 17.75 2.4 12.5 2.4Z" fill="#FFFFFF"/>
</g>
</svg>
