<svg width="25" height="24" viewBox="0 0 25 24" fill="none" xmlns="http://www.w3.org/2000/svg">
<g opacity="0.8">
<path fill-rule="evenodd" clip-rule="evenodd" d="M18.0349 18.3V20.145C18.0369 20.2625 18.0154 20.3791 17.9719 20.4883C17.9283 20.5974 17.8634 20.6967 17.781 20.7805C17.6986 20.8643 17.6004 20.9308 17.4921 20.9762C17.3837 21.0216 17.2674 21.045 17.1499 21.045C16.9112 21.045 16.6823 20.9501 16.5135 20.7814C16.3447 20.6126 16.2499 20.3837 16.2499 20.145V18.3C16.2499 17.5521 15.9528 16.8348 15.4239 16.3059C14.8951 15.7771 14.1778 15.48 13.4299 15.48H6.00487C5.25956 15.4839 4.54617 15.7828 4.02055 16.3112C3.49494 16.8396 3.19986 17.5546 3.19987 18.3V20.145C3.19987 20.3837 3.10508 20.6126 2.93629 20.7814C2.76751 20.9501 2.53856 21.045 2.29987 21.045C2.06117 21.045 1.83227 20.9501 1.66348 20.7814C1.4947 20.6126 1.3999 20.3837 1.3999 20.145V18.3C1.3999 17.0786 1.88505 15.9074 2.74866 15.0438C3.61226 14.1802 4.78355 13.695 6.00487 13.695H13.4299C14.0352 13.693 14.6349 13.8108 15.1945 14.0415C15.7541 14.2722 16.2625 14.6113 16.6905 15.0393C17.1185 15.4673 17.4576 15.9758 17.6884 16.5354C17.9191 17.095 18.0369 17.6947 18.0349 18.3Z" fill="#FFFFFF"/>
<path fill-rule="evenodd" clip-rule="evenodd" d="M9.67988 2.54999C8.7691 2.54999 7.87877 2.82008 7.12149 3.32608C6.3642 3.83208 5.77397 4.55129 5.42543 5.39275C5.07688 6.2342 4.98567 7.16008 5.16336 8.05336C5.34104 8.94664 5.77965 9.76719 6.42367 10.4112C7.06769 11.0552 7.88819 11.4938 8.78147 11.6715C9.67476 11.8492 10.6007 11.758 11.4421 11.4095C12.2836 11.0609 13.0028 10.4707 13.5088 9.71339C14.0148 8.95611 14.2849 8.06578 14.2849 7.155C14.2809 5.93489 13.7945 4.76589 12.9317 3.90314C12.069 3.04039 10.9 2.55394 9.67988 2.54999ZM9.67988 9.97501C9.12214 9.97501 8.57693 9.80962 8.11318 9.49976C7.64944 9.18989 7.28796 8.74946 7.07452 8.23418C6.86108 7.71889 6.80526 7.15188 6.91407 6.60486C7.02288 6.05783 7.29148 5.55532 7.68586 5.16093C8.08025 4.76655 8.58271 4.498 9.12974 4.38919C9.67677 4.28038 10.2438 4.3362 10.7591 4.54964C11.2743 4.76308 11.7148 5.12456 12.0246 5.5883C12.3345 6.05205 12.4999 6.59726 12.4999 7.155C12.4999 7.90291 12.2028 8.62016 11.6739 9.14902C11.145 9.67787 10.4278 9.97501 9.67988 9.97501Z" fill="#FFFFFF"/>
<path fill-rule="evenodd" clip-rule="evenodd" d="M23.5999 18.3V20.145C23.6019 20.2625 23.5805 20.3791 23.5369 20.4883C23.4933 20.5974 23.4284 20.6967 23.346 20.7805C23.2637 20.8643 23.1654 20.9308 23.0571 20.9762C22.9487 21.0216 22.8324 21.045 22.7149 21.045C22.4762 21.045 22.2473 20.9501 22.0785 20.7814C21.9097 20.6126 21.8149 20.3837 21.8149 20.145V18.3C21.8174 17.6742 21.6105 17.0656 21.2273 16.5709C20.844 16.0762 20.3064 15.7239 19.6999 15.57C19.4693 15.51 19.272 15.361 19.1511 15.1558C19.0302 14.9505 18.9956 14.7057 19.0549 14.475C19.0855 14.3616 19.1385 14.2555 19.2106 14.1627C19.2827 14.07 19.3725 13.9926 19.4749 13.935C19.6092 13.8501 19.7661 13.8082 19.9249 13.815C19.9991 13.8004 20.0756 13.8004 20.1499 13.815C21.1433 14.0697 22.0229 14.6497 22.6482 15.4626C23.2735 16.2755 23.6085 17.2744 23.5999 18.3Z" fill="#FFFFFF"/>
<path fill-rule="evenodd" clip-rule="evenodd" d="M19.8949 7.16999C19.9034 8.19944 19.5668 9.20205 18.9387 10.0177C18.3106 10.8334 17.4273 11.4152 16.4299 11.67C16.317 11.7003 16.1992 11.708 16.0834 11.6925C15.9675 11.6771 15.8558 11.6388 15.7549 11.58C15.5529 11.4546 15.4076 11.2555 15.3499 11.025C15.3196 10.9121 15.3119 10.7943 15.3273 10.6785C15.3428 10.5626 15.381 10.451 15.4399 10.35C15.5664 10.1491 15.7649 10.0042 15.9949 9.94496C16.5998 9.78835 17.1356 9.43525 17.5181 8.94113C17.9006 8.447 18.1081 7.83986 18.1081 7.21499C18.1081 6.59012 17.9006 5.98294 17.5181 5.48881C17.1356 4.99468 16.5998 4.64159 15.9949 4.48498C15.7638 4.41933 15.5658 4.26948 15.4399 4.06498C15.3802 3.9643 15.3415 3.85261 15.3261 3.73663C15.3106 3.62065 15.3187 3.50275 15.3499 3.38996C15.3779 3.27639 15.4282 3.16951 15.4978 3.07548C15.5674 2.98145 15.6549 2.90218 15.7553 2.8422C15.8557 2.78222 15.9671 2.74271 16.0829 2.72602C16.1987 2.70934 16.3166 2.71579 16.4299 2.74497C17.4149 2.99662 18.2889 3.56713 18.9157 4.36756C19.5425 5.168 19.8868 6.15339 19.8949 7.16999Z" fill="#FFFFFF"/>
</g>
</svg>
