<svg width="25" height="24" viewBox="0 0 25 24" fill="none" xmlns="http://www.w3.org/2000/svg">
<g opacity="0.8">
<path fill-rule="evenodd" clip-rule="evenodd" d="M1.5 3.64444C1.5 3.18285 1.87256 2.80865 2.33214 2.80865H16.1974C16.657 2.80865 17.0296 3.18285 17.0296 3.64444V15.7136C17.0296 16.1752 16.657 16.5494 16.1974 16.5494H2.33214C1.87256 16.5494 1.5 16.1752 1.5 15.7136V3.64444ZM3.16429 4.48023V14.8778H15.3653V4.48023H3.16429Z" fill="#FFFFFF"/>
<path fill-rule="evenodd" clip-rule="evenodd" d="M15.3653 8.28647C15.3653 7.82488 15.7378 7.45069 16.1974 7.45069H19.8948C20.1155 7.45069 20.3272 7.53874 20.4832 7.69548L23.2563 10.4807C23.4123 10.6374 23.5 10.85 23.5 11.0717V15.7137C23.5 16.1753 23.1274 16.5495 22.6679 16.5495L16.1974 16.5494C15.7378 16.5494 15.3653 16.1753 15.3653 15.7137V8.28647ZM17.0295 9.12226V14.8779H21.8357V11.4179L19.5501 9.12226H17.0295Z" fill="#FFFFFF"/>
<path fill-rule="evenodd" clip-rule="evenodd" d="M6.49167 16.5494C5.67499 16.5494 5.01293 17.2144 5.01293 18.0346C5.01293 18.8549 5.67499 19.5198 6.49167 19.5198C7.30835 19.5198 7.9704 18.8549 7.9704 18.0346C7.9704 17.2144 7.30835 16.5494 6.49167 16.5494ZM3.34865 18.0346C3.34865 16.2912 4.75583 14.8778 6.49167 14.8778C8.22751 14.8778 9.63469 16.2912 9.63469 18.0346C9.63469 19.7781 8.22751 21.1914 6.49167 21.1914C4.75583 21.1914 3.34865 19.7781 3.34865 18.0346Z" fill="#FFFFFF"/>
<path fill-rule="evenodd" clip-rule="evenodd" d="M18.5083 16.5494C17.6916 16.5494 17.0295 17.2144 17.0295 18.0346C17.0295 18.8549 17.6916 19.5198 18.5083 19.5198C19.325 19.5198 19.987 18.8549 19.987 18.0346C19.987 17.2144 19.325 16.5494 18.5083 16.5494ZM15.3653 18.0346C15.3653 16.2912 16.7724 14.8778 18.5083 14.8778C20.2441 14.8778 21.6513 16.2912 21.6513 18.0346C21.6513 19.7781 20.2441 21.1914 18.5083 21.1914C16.7724 21.1914 15.3653 19.7781 15.3653 18.0346Z" fill="#FFFFFF"/>
</g>
</svg>
