<svg width="25" height="24" viewBox="0 0 25 24" fill="none" xmlns="http://www.w3.org/2000/svg">
<g opacity="0.8">
<path d="M15.815 7.39496C15.991 7.5318 16.1088 7.72999 16.145 7.94995C16.1771 8.16667 16.1233 8.38736 15.995 8.56496L10.37 16.065C10.292 16.1729 10.1891 16.2604 10.07 16.3199C9.94872 16.3798 9.81522 16.4107 9.67999 16.41C9.49717 16.4081 9.31929 16.3505 9.16999 16.245C9.07972 16.1748 9.00336 16.0882 8.94496 15.9899C8.88109 15.8956 8.84003 15.7878 8.82498 15.6749C8.80997 15.5655 8.80997 15.4544 8.82498 15.3449C8.8597 15.238 8.91028 15.1369 8.97499 15.045L14.6 7.54497C14.6685 7.45501 14.7541 7.37951 14.8519 7.32286C14.9498 7.26622 15.0579 7.22956 15.17 7.21497H15.305C15.4906 7.21476 15.6706 7.2783 15.815 7.39496Z" fill="#FFFFFF"/>
<path d="M14.6572 13.1285C14.858 13.0461 15.073 13.0042 15.29 13.005C15.507 13.0042 15.7221 13.0461 15.9228 13.1285C16.1236 13.2108 16.3061 13.332 16.46 13.485C16.6898 13.7162 16.8461 14.0102 16.909 14.33C16.9719 14.6498 16.9387 14.9811 16.8136 15.282C16.6884 15.583 16.4769 15.8401 16.2057 16.021C15.9346 16.2019 15.616 16.2985 15.29 16.2985C14.9641 16.2985 14.6455 16.2019 14.3743 16.021C14.1032 15.8401 13.8916 15.583 13.7665 15.282C13.6413 14.9811 13.6081 14.6498 13.671 14.33C13.734 14.0102 13.8902 13.7162 14.12 13.485C14.2739 13.332 14.4564 13.2108 14.6572 13.1285Z" fill="#FFFFFF"/>
<path d="M10.8351 10.2C11.1429 9.88838 11.3154 9.46802 11.3154 9.03001C11.3154 8.59201 11.1429 8.17165 10.8351 7.86002C10.5234 7.55223 10.1031 7.37964 9.66507 7.37964C9.22707 7.37964 8.8067 7.55223 8.49507 7.86002C8.18477 8.17032 8.01044 8.59118 8.01044 9.03001C8.01044 9.46885 8.18477 9.88971 8.49507 10.2C8.80537 10.5103 9.22623 10.6846 9.66507 10.6846C10.1039 10.6846 10.5248 10.5103 10.8351 10.2Z" fill="#FFFFFF"/>
<path fill-rule="evenodd" clip-rule="evenodd" d="M22.58 12.315L23.405 14.145C23.5743 14.5112 23.6565 14.9117 23.645 15.315C23.6479 15.7078 23.5661 16.0967 23.405 16.455C23.2535 16.804 23.0283 17.1161 22.745 17.37C22.4602 17.6253 22.1293 17.8239 21.77 17.955L19.925 18.66C19.7726 18.7137 19.6342 18.8008 19.52 18.915C19.4058 19.0292 19.3186 19.1676 19.265 19.32L18.56 21.165C18.4259 21.5296 18.2163 21.8619 17.945 22.14C17.6744 22.4244 17.3474 22.6492 16.985 22.8C16.6284 22.9583 16.2426 23.0402 15.8525 23.0402C15.4623 23.0402 15.0765 22.9583 14.72 22.8L12.92 22.005C12.7768 21.9285 12.6173 21.8874 12.455 21.885C12.2938 21.8822 12.1343 21.9182 11.99 21.99L10.19 22.815C9.74018 23.0214 9.24374 23.1052 8.7511 23.0578C8.25845 23.0104 7.78716 22.8335 7.38499 22.545C6.90875 22.2157 6.54282 21.7504 6.33498 21.21L5.64499 19.365C5.59134 19.2126 5.50419 19.0742 5.38997 18.96C5.27575 18.8458 5.13735 18.7587 4.98499 18.705L3.125 18C2.76541 17.8766 2.43557 17.6794 2.1566 17.4211C1.87763 17.1628 1.65567 16.849 1.50497 16.5C1.34388 16.1417 1.26201 15.7528 1.26497 15.36C1.26228 14.972 1.34418 14.5881 1.50497 14.235L2.33 12.435C2.45013 12.1366 2.45013 11.8033 2.33 11.505L1.50497 9.705C1.3461 9.34538 1.25948 8.95802 1.25 8.56499C1.24999 8.17395 1.32641 7.78668 1.47499 7.42497C1.61855 7.06236 1.83853 6.73496 2.11998 6.465C2.40047 6.19671 2.73203 5.98756 3.09497 5.84999L4.955 5.16C5.10703 5.09862 5.24485 5.00669 5.35998 4.88997C5.47027 4.77838 5.55697 4.64578 5.61496 4.5L6.30499 2.63997C6.43524 2.26987 6.65108 1.9358 6.93497 1.66498C7.20554 1.38056 7.53254 1.15576 7.89499 1.00497C8.25293 0.85189 8.63819 0.77298 9.0275 0.77298C9.4168 0.77298 9.80202 0.85189 10.16 1.00497L11.96 1.83C12.2583 1.95013 12.5916 1.95013 12.89 1.83L14.69 1.00497C15.045 0.848 15.427 0.761425 15.815 0.75C16.206 0.749987 16.5933 0.826411 16.955 0.974991C17.3123 1.12637 17.6357 1.34767 17.9061 1.62589C18.1766 1.9041 18.3887 2.23358 18.53 2.59497L19.235 4.455C19.293 4.60078 19.3797 4.73338 19.49 4.84497C19.6051 4.96169 19.743 5.05357 19.895 5.11496L21.74 5.80499C22.1004 5.92654 22.4323 6.12052 22.715 6.375C22.9987 6.63447 23.2237 6.95154 23.375 7.30499C23.5433 7.66146 23.6306 8.05075 23.6306 8.44496C23.6306 8.83917 23.5433 9.22851 23.375 9.58498L22.58 11.385C22.5065 11.5287 22.4703 11.6886 22.475 11.85C22.4739 12.011 22.5098 12.1701 22.58 12.315ZM21.755 14.775L21.02 13.035C20.8729 12.6737 20.8064 12.2846 20.825 11.895C20.836 11.4892 20.9332 11.0904 21.11 10.725L21.935 8.92497C22.0404 8.63424 22.0404 8.3157 21.935 8.02496C21.81 7.73911 21.5787 7.51316 21.29 7.39499L19.43 6.705C19.0455 6.57019 18.6966 6.34958 18.41 6.05997C18.1235 5.77079 17.9034 5.42275 17.765 5.03998L17.06 3.17999C17.0132 3.03228 16.9307 2.89834 16.82 2.78998C16.7138 2.68008 16.5862 2.59329 16.445 2.535C16.3063 2.47058 16.1553 2.43718 16.0025 2.43718C15.8496 2.43718 15.6986 2.47058 15.56 2.535L13.76 3.35999C13.3876 3.52812 12.9836 3.61505 12.575 3.61505C12.1664 3.61505 11.7624 3.52812 11.39 3.35999L9.59 2.535C9.4424 2.47479 9.2844 2.44417 9.125 2.44496C8.98154 2.41503 8.83344 2.41503 8.68999 2.44496C8.40413 2.5699 8.17814 2.80128 8.05997 3.09L7.36998 4.94998C7.22375 5.30756 7.00981 5.63355 6.73996 5.91C6.45331 6.19962 6.10451 6.42018 5.71997 6.55499L3.85999 7.24498C3.70033 7.29494 3.55238 7.37657 3.42497 7.48499C3.30819 7.60326 3.21187 7.74011 3.13997 7.88997C3.03454 8.18071 3.03454 8.49924 3.13997 8.78998L3.965 10.59C4.13313 10.9624 4.22006 11.3663 4.22006 11.775C4.22006 12.1836 4.13313 12.5875 3.965 12.96L3.13997 14.76C3.08342 14.8989 3.04801 15.0455 3.03496 15.195C3.03456 15.3495 3.0652 15.5025 3.125 15.645C3.18691 15.7842 3.27325 15.9112 3.37997 16.02C3.49481 16.1224 3.62686 16.2036 3.76999 16.26L5.62997 16.965C6.01364 17.1016 6.36207 17.3219 6.65005 17.6099C6.93804 17.8979 7.15837 18.2463 7.295 18.63L7.98498 20.49C8.10824 20.7753 8.33259 21.0051 8.61496 21.135C8.75506 21.1829 8.90191 21.2082 9.04997 21.21C9.20937 21.2108 9.36737 21.1802 9.51497 21.12L11.315 20.295C11.6874 20.1269 12.0914 20.0399 12.5 20.0399C12.9086 20.0399 13.3125 20.1269 13.685 20.295L15.485 21.12C15.7757 21.2254 16.0943 21.2254 16.385 21.12C16.668 20.9883 16.8886 20.7516 17 20.46L17.705 18.615C17.8398 18.2304 18.0604 17.8816 18.35 17.595C18.6327 17.3005 18.9828 17.0792 19.37 16.95L21.125 16.275C21.2681 16.2186 21.4001 16.1374 21.515 16.035C21.6217 15.9262 21.7081 15.7992 21.77 15.66C21.8298 15.5175 21.8604 15.3645 21.86 15.21C21.8469 15.0605 21.8115 14.9139 21.755 14.775Z" fill="#FFFFFF"/>
</g>
</svg>
