<svg width="25" height="24" viewBox="0 0 25 24" fill="none" xmlns="http://www.w3.org/2000/svg">
<g opacity="0.8">
<path d="M20.8278 22.5H16.1811C15.7598 22.5 15.3556 22.3333 15.0568 22.0364C14.758 21.7394 14.5888 21.3363 14.5862 20.915V14.5947H10.3727V20.915C10.3701 21.3363 10.2009 21.7394 9.90213 22.0364C9.60332 22.3333 9.19915 22.5 8.77787 22.5H4.13117C3.64552 22.5 3.17977 22.3071 2.83637 21.9637C2.49297 21.6203 2.30005 21.1545 2.30005 20.6689V9.59358C2.30043 9.30848 2.36738 9.0274 2.49557 8.77274C2.62375 8.51808 2.80963 8.29686 3.0384 8.12672L11.4852 1.86549C11.8019 1.62823 12.1871 1.5 12.5828 1.5C12.9786 1.5 13.3638 1.62823 13.6805 1.86549L21.9599 8.11688C22.1799 8.29411 22.3563 8.51934 22.4758 8.7753C22.5952 9.03127 22.6545 9.31117 22.6491 9.59358V20.6689C22.6504 20.9089 22.6042 21.1468 22.5133 21.3689C22.4223 21.591 22.2884 21.7929 22.1191 21.9631C21.9499 22.1333 21.7487 22.2683 21.527 22.3604C21.3054 22.4526 21.0678 22.5 20.8278 22.5ZM16.2795 20.8264H20.8475C20.8875 20.8239 20.9251 20.8062 20.9526 20.7769C20.98 20.7477 20.9952 20.709 20.9952 20.6689V9.59358C20.996 9.57052 20.991 9.54762 20.9807 9.52698C20.9704 9.50634 20.955 9.48862 20.9361 9.47545L12.637 3.22406C12.6094 3.20543 12.5768 3.19549 12.5435 3.19549C12.5101 3.19549 12.4776 3.20543 12.4499 3.22406L4.01303 9.48529C3.99266 9.50007 3.97589 9.51925 3.96395 9.54141C3.95202 9.56357 3.94524 9.58813 3.94412 9.61327V20.6689C3.94412 20.7107 3.96071 20.7507 3.99025 20.7803C4.01979 20.8098 4.05986 20.8264 4.10163 20.8264H8.66958V14.4273C8.67216 14.0287 8.83168 13.647 9.1136 13.3651C9.39551 13.0832 9.77713 12.9237 10.1758 12.9211H14.7536C14.9527 12.9198 15.1501 12.9577 15.3345 13.0327C15.519 13.1077 15.6868 13.2183 15.8285 13.3582C15.9702 13.498 16.083 13.6645 16.1604 13.8479C16.2378 14.0313 16.2783 14.2282 16.2795 14.4273V20.8264Z" fill="#FFFFFF"/>
</g>
</svg>
