<svg width="25" height="24" viewBox="0 0 25 24" fill="none" xmlns="http://www.w3.org/2000/svg">
<g opacity="0.8">
<path fill-rule="evenodd" clip-rule="evenodd" d="M17.6565 2.38484C17.4341 1.43551 16.5868 0.75 15.5964 0.75H9.40376L9.24665 0.755896L9.08336 0.774508L8.92277 0.805705C7.97344 1.0281 7.28793 1.87545 7.28793 2.86583V3.12387H5.53334L5.3533 3.12861C3.74368 3.21353 2.43701 4.42974 2.43701 5.96217V20.4117L2.44234 20.5806C2.53775 22.0885 3.90266 23.25 5.53334 23.25H19.4668L19.6469 23.2453C21.2565 23.1604 22.5632 21.9442 22.5632 20.4117V5.96217L22.5578 5.79325C22.4624 4.28536 21.0975 3.12387 19.4668 3.12387H17.7122V2.86583L17.7064 2.70872L17.6877 2.54543L17.6565 2.38484ZM17.7122 4.67204V4.93005C17.7122 5.92042 17.0267 6.76777 16.0774 6.99017L15.9168 7.02137L15.7535 7.03998L15.5964 7.04587H9.40376C8.41338 7.04587 7.56604 6.36037 7.34364 5.41103L7.31244 5.25044L7.29383 5.08716L7.28793 4.93005V4.67204H5.53334C4.71075 4.67204 4.06518 5.20286 3.99208 5.84131L3.98518 5.96217V20.4117C3.98518 21.062 4.58236 21.631 5.38128 21.6957L5.53334 21.7019H19.4668C20.2894 21.7019 20.935 21.171 21.0081 20.5326L21.015 20.4117V5.96217C21.015 5.31193 20.4178 4.74285 19.6189 4.67815L19.4668 4.67204H17.7122ZM9.71307 1.93693H15.2871C15.8235 1.93693 16.2909 2.281 16.4605 2.78236L16.4965 2.91087L16.5184 3.04335L16.5256 3.1755L16.525 4.64049L16.5142 4.78717L16.4887 4.92102L16.4443 5.06278C16.3138 5.40435 16.038 5.66932 15.6906 5.79012L15.5571 5.82854L15.4176 5.85183L15.2871 5.85895L9.69299 5.85829L9.54631 5.84749L9.41246 5.82198L9.2707 5.77762C8.92913 5.64711 8.66417 5.37125 8.54336 5.02387L8.50495 4.8904L8.48166 4.75086L8.47454 4.62037L8.47519 3.15538L8.48599 3.0087L8.5115 2.87485L8.55586 2.73309C8.68637 2.39152 8.96223 2.12656 9.30961 2.00575L9.44309 1.96734L9.58262 1.94405L9.71307 1.93693Z" fill="#FFFFFF"/>
<path d="M7.05561 12.7151C7.62587 12.7151 8.08817 12.2528 8.08817 11.6826C8.08817 11.1123 7.62587 10.65 7.05561 10.65C6.48534 10.65 6.02304 11.1123 6.02304 11.6826C6.02304 12.2528 6.48534 12.7151 7.05561 12.7151Z" fill="#FFFFFF"/>
<path d="M10.1533 10.7382C9.63491 10.7382 9.21464 11.1585 9.21464 11.6769C9.21464 12.1953 9.63491 12.6156 10.1533 12.6156H18.0384C18.5568 12.6156 18.9771 12.1953 18.9771 11.6769C18.9771 11.1585 18.5568 10.7382 18.0384 10.7382H10.1533Z" fill="#FFFFFF"/>
<path d="M9.21468 16.9826C9.21468 16.4642 9.63495 16.0439 10.1534 16.0439H18.0384C18.5568 16.0439 18.9771 16.4642 18.9771 16.9826C18.9771 17.5011 18.5568 17.9213 18.0384 17.9213H10.1534C9.63495 17.9213 9.21468 17.5011 9.21468 16.9826Z" fill="#FFFFFF"/>
<path d="M7.05565 18.0208C7.62592 18.0208 8.08821 17.5585 8.08821 16.9883C8.08821 16.418 7.62592 15.9557 7.05565 15.9557C6.48538 15.9557 6.02308 16.418 6.02308 16.9883C6.02308 17.5585 6.48538 18.0208 7.05565 18.0208Z" fill="#FFFFFF"/>
</g>
</svg>
