<svg width="25" height="24" viewBox="0 0 25 24" fill="none" xmlns="http://www.w3.org/2000/svg">
<g clip-path="url(#clip0_26_3571)">
<path fill-rule="evenodd" clip-rule="evenodd" d="M5 16.5H2.27273C1.29368 16.5 0.5 15.8284 0.5 15V4.5C0.5 3.67157 1.29368 3 2.27273 3H18.2273C19.2063 3 20 3.67157 20 4.5L20 7.5H22.7273C23.7063 7.5 24.5 8.25552 24.5 9.1875V19.3125C24.5 20.2445 23.7063 21 22.7273 21H6.77273C5.79368 21 5 20.2445 5 19.3125V16.5ZM6.5 7.2C5.50589 7.2 4.7 8.00589 4.7 9V14.7H2.3V4.8H18.2L18.2 7.2H6.5ZM14.75 17.25C16.4069 17.25 17.75 15.9069 17.75 14.25C17.75 12.5931 16.4069 11.25 14.75 11.25C13.0931 11.25 11.75 12.5931 11.75 14.25C11.75 15.9069 13.0931 17.25 14.75 17.25Z" fill="#FFFFFF"/>
</g>
<defs>
<clipPath id="clip0_26_3571">
<rect width="24" height="24" fill="white" transform="translate(0.5)"/>
</clipPath>
</defs>
</svg>
