<svg width="25" height="24" viewBox="0 0 25 24" fill="none" xmlns="http://www.w3.org/2000/svg">
<g opacity="0.8">
<path fill-rule="evenodd" clip-rule="evenodd" d="M23.07 8.9C22.92 8.6 22.61 8.4 22.27 8.4H13.81L14.74 0.98C14.79 0.6 14.58 0.22 14.22 0.07C14.11 0.02 13.99 0 13.88 0C13.62 0 13.37 0.11 13.2 0.31L2.69996 12.91C2.47996 13.17 2.43996 13.54 2.57996 13.84C2.71996 14.15 3.03996 14.35 3.36996 14.35H11.83L10.9 21.76C10.86 22.15 11.07 22.52 11.42 22.68C11.78 22.83 12.2 22.73 12.45 22.43L22.95 9.83C23.16 9.57 23.21 9.21 23.07 8.9ZM13.01 19.02L13.69 13.58C13.72 13.33 13.64 13.08 13.48 12.89C13.31 12.71 13.07 12.6 12.82 12.6H5.23996L12.63 3.73L11.95 9.16C11.92 9.41 12 9.66 12.17 9.85C12.33 10.04 12.57 10.15 12.82 10.15H20.4L13.01 19.02Z" fill="#FFFFFF"/>
</g>
</svg>
