<svg width="8" height="8" viewBox="0 0 8 8" fill="none" xmlns="http://www.w3.org/2000/svg">
<path d="M3.4283 6.23409L0.604965 2.3286C0.546754 2.24507 0.515954 2.15037 0.515628 2.05392C0.515302 1.95746 0.545462 1.86262 0.603107 1.77882C0.660752 1.69502 0.743873 1.62519 0.844201 1.57627C0.944528 1.52736 1.05856 1.50106 1.17496 1.5H6.82163C6.93803 1.50106 7.05207 1.52736 7.15239 1.57627C7.25272 1.62519 7.33584 1.69502 7.39349 1.77882C7.45113 1.86262 7.48129 1.95746 7.48097 2.05392C7.48064 2.15037 7.44984 2.24507 7.39163 2.3286L4.5683 6.23409C4.50887 6.31526 4.4252 6.38238 4.32536 6.42895C4.22552 6.47553 4.11288 6.5 3.9983 6.5C3.88372 6.5 3.77107 6.47553 3.67123 6.42895C3.57139 6.38238 3.48772 6.31526 3.4283 6.23409Z" fill="#4D4D4D"/>
</svg>
